<?xml version="1.0" encoding="utf-8"?>
<svg xmlns="http://www.w3.org/2000/svg" xmlns:xlink="http://www.w3.org/1999/xlink" width="600" height="400" viewBox="0 0 2400 1600">
<defs>
  <clipPath id="clip630">
    <rect x="0" y="0" width="2400" height="1600"/>
  </clipPath>
</defs>
<path clip-path="url(#clip630)" d="
M0 1600 L2400 1600 L2400 0 L0 0  Z
  " fill="#ffffff" fill-rule="evenodd" fill-opacity="1"/>
<defs>
  <clipPath id="clip631">
    <rect x="480" y="0" width="1681" height="1600"/>
  </clipPath>
</defs>
<path clip-path="url(#clip630)" d="
M148.334 1486.45 L2352.76 1486.45 L2352.76 123.472 L148.334 123.472  Z
  " fill="#ffffff" fill-rule="evenodd" fill-opacity="1"/>
<defs>
  <clipPath id="clip632">
    <rect x="148" y="123" width="2205" height="1364"/>
  </clipPath>
</defs>
<polyline clip-path="url(#clip632)" style="stroke:#000000; stroke-width:2; stroke-opacity:0.1; fill:none" points="
  441.795,1486.45 441.795,123.472 
  "/>
<polyline clip-path="url(#clip632)" style="stroke:#000000; stroke-width:2; stroke-opacity:0.1; fill:none" points="
  903.938,1486.45 903.938,123.472 
  "/>
<polyline clip-path="url(#clip632)" style="stroke:#000000; stroke-width:2; stroke-opacity:0.1; fill:none" points="
  1366.08,1486.45 1366.08,123.472 
  "/>
<polyline clip-path="url(#clip632)" style="stroke:#000000; stroke-width:2; stroke-opacity:0.1; fill:none" points="
  1828.22,1486.45 1828.22,123.472 
  "/>
<polyline clip-path="url(#clip632)" style="stroke:#000000; stroke-width:2; stroke-opacity:0.1; fill:none" points="
  2290.37,1486.45 2290.37,123.472 
  "/>
<polyline clip-path="url(#clip630)" style="stroke:#000000; stroke-width:4; stroke-opacity:1; fill:none" points="
  148.334,1486.45 2352.76,1486.45 
  "/>
<polyline clip-path="url(#clip630)" style="stroke:#000000; stroke-width:4; stroke-opacity:1; fill:none" points="
  441.795,1486.45 441.795,1470.09 
  "/>
<polyline clip-path="url(#clip630)" style="stroke:#000000; stroke-width:4; stroke-opacity:1; fill:none" points="
  903.938,1486.45 903.938,1470.09 
  "/>
<polyline clip-path="url(#clip630)" style="stroke:#000000; stroke-width:4; stroke-opacity:1; fill:none" points="
  1366.08,1486.45 1366.08,1470.09 
  "/>
<polyline clip-path="url(#clip630)" style="stroke:#000000; stroke-width:4; stroke-opacity:1; fill:none" points="
  1828.22,1486.45 1828.22,1470.09 
  "/>
<polyline clip-path="url(#clip630)" style="stroke:#000000; stroke-width:4; stroke-opacity:1; fill:none" points="
  2290.37,1486.45 2290.37,1470.09 
  "/>
<path clip-path="url(#clip630)" d="M 0 0 M436.448 1543.18 L452.767 1543.18 L452.767 1547.12 L430.823 1547.12 L430.823 1543.18 Q433.485 1540.43 438.068 1535.8 Q442.675 1531.15 443.855 1529.81 Q446.101 1527.28 446.98 1525.55 Q447.883 1523.79 447.883 1522.1 Q447.883 1519.34 445.939 1517.61 Q444.017 1515.87 440.915 1515.87 Q438.716 1515.87 436.263 1516.63 Q433.832 1517.4 431.054 1518.95 L431.054 1514.23 Q433.878 1513.09 436.332 1512.51 Q438.786 1511.93 440.823 1511.93 Q446.193 1511.93 449.388 1514.62 Q452.582 1517.31 452.582 1521.8 Q452.582 1523.93 451.772 1525.85 Q450.985 1527.74 448.878 1530.34 Q448.3 1531.01 445.198 1534.23 Q442.096 1537.42 436.448 1543.18 Z" fill="#000000" fill-rule="evenodd" fill-opacity="1" /><path clip-path="url(#clip630)" d="M 0 0 M906.947 1516.63 L895.142 1535.08 L906.947 1535.08 L906.947 1516.63 M905.72 1512.56 L911.6 1512.56 L911.6 1535.08 L916.531 1535.08 L916.531 1538.97 L911.6 1538.97 L911.6 1547.12 L906.947 1547.12 L906.947 1538.97 L891.345 1538.97 L891.345 1534.46 L905.72 1512.56 Z" fill="#000000" fill-rule="evenodd" fill-opacity="1" /><path clip-path="url(#clip630)" d="M 0 0 M1366.49 1527.98 Q1363.34 1527.98 1361.49 1530.13 Q1359.66 1532.28 1359.66 1536.03 Q1359.66 1539.76 1361.49 1541.93 Q1363.34 1544.09 1366.49 1544.09 Q1369.63 1544.09 1371.46 1541.93 Q1373.31 1539.76 1373.31 1536.03 Q1373.31 1532.28 1371.46 1530.13 Q1369.63 1527.98 1366.49 1527.98 M1375.77 1513.32 L1375.77 1517.58 Q1374.01 1516.75 1372.2 1516.31 Q1370.42 1515.87 1368.66 1515.87 Q1364.03 1515.87 1361.58 1519 Q1359.15 1522.12 1358.8 1528.44 Q1360.17 1526.43 1362.23 1525.36 Q1364.29 1524.27 1366.76 1524.27 Q1371.97 1524.27 1374.98 1527.44 Q1378.01 1530.59 1378.01 1536.03 Q1378.01 1541.36 1374.87 1544.57 Q1371.72 1547.79 1366.49 1547.79 Q1360.49 1547.79 1357.32 1543.21 Q1354.15 1538.6 1354.15 1529.87 Q1354.15 1521.68 1358.04 1516.82 Q1361.93 1511.93 1368.48 1511.93 Q1370.24 1511.93 1372.02 1512.28 Q1373.82 1512.63 1375.77 1513.32 Z" fill="#000000" fill-rule="evenodd" fill-opacity="1" /><path clip-path="url(#clip630)" d="M 0 0 M1828.22 1530.71 Q1824.89 1530.71 1822.97 1532.49 Q1821.07 1534.27 1821.07 1537.4 Q1821.07 1540.52 1822.97 1542.31 Q1824.89 1544.09 1828.22 1544.09 Q1831.56 1544.09 1833.48 1542.31 Q1835.4 1540.5 1835.4 1537.4 Q1835.4 1534.27 1833.48 1532.49 Q1831.58 1530.71 1828.22 1530.71 M1823.55 1528.72 Q1820.54 1527.98 1818.85 1525.92 Q1817.18 1523.86 1817.18 1520.89 Q1817.18 1516.75 1820.12 1514.34 Q1823.08 1511.93 1828.22 1511.93 Q1833.39 1511.93 1836.33 1514.34 Q1839.27 1516.75 1839.27 1520.89 Q1839.27 1523.86 1837.58 1525.92 Q1835.91 1527.98 1832.92 1528.72 Q1836.3 1529.5 1838.18 1531.8 Q1840.08 1534.09 1840.08 1537.4 Q1840.08 1542.42 1837 1545.11 Q1833.94 1547.79 1828.22 1547.79 Q1822.51 1547.79 1819.43 1545.11 Q1816.37 1542.42 1816.37 1537.4 Q1816.37 1534.09 1818.27 1531.8 Q1820.17 1529.5 1823.55 1528.72 M1821.83 1521.33 Q1821.83 1524.02 1823.5 1525.52 Q1825.19 1527.03 1828.22 1527.03 Q1831.23 1527.03 1832.92 1525.52 Q1834.64 1524.02 1834.64 1521.33 Q1834.64 1518.65 1832.92 1517.14 Q1831.23 1515.64 1828.22 1515.64 Q1825.19 1515.64 1823.5 1517.14 Q1821.83 1518.65 1821.83 1521.33 Z" fill="#000000" fill-rule="evenodd" fill-opacity="1" /><path clip-path="url(#clip630)" d="M 0 0 M2267.24 1543.18 L2274.88 1543.18 L2274.88 1516.82 L2266.57 1518.49 L2266.57 1514.23 L2274.83 1512.56 L2279.51 1512.56 L2279.51 1543.18 L2287.15 1543.18 L2287.15 1547.12 L2267.24 1547.12 L2267.24 1543.18 Z" fill="#000000" fill-rule="evenodd" fill-opacity="1" /><path clip-path="url(#clip630)" d="M 0 0 M2302.22 1515.64 Q2298.61 1515.64 2296.78 1519.2 Q2294.97 1522.75 2294.97 1529.87 Q2294.97 1536.98 2296.78 1540.55 Q2298.61 1544.09 2302.22 1544.09 Q2305.85 1544.09 2307.66 1540.55 Q2309.49 1536.98 2309.49 1529.87 Q2309.49 1522.75 2307.66 1519.2 Q2305.85 1515.64 2302.22 1515.64 M2302.22 1511.93 Q2308.03 1511.93 2311.08 1516.54 Q2314.16 1521.12 2314.16 1529.87 Q2314.16 1538.6 2311.08 1543.21 Q2308.03 1547.79 2302.22 1547.79 Q2296.41 1547.79 2293.33 1543.21 Q2290.27 1538.6 2290.27 1529.87 Q2290.27 1521.12 2293.33 1516.54 Q2296.41 1511.93 2302.22 1511.93 Z" fill="#000000" fill-rule="evenodd" fill-opacity="1" /><polyline clip-path="url(#clip632)" style="stroke:#000000; stroke-width:2; stroke-opacity:0.1; fill:none" points="
  148.334,1238.37 2352.76,1238.37 
  "/>
<polyline clip-path="url(#clip632)" style="stroke:#000000; stroke-width:2; stroke-opacity:0.1; fill:none" points="
  148.334,940.28 2352.76,940.28 
  "/>
<polyline clip-path="url(#clip632)" style="stroke:#000000; stroke-width:2; stroke-opacity:0.1; fill:none" points="
  148.334,642.194 2352.76,642.194 
  "/>
<polyline clip-path="url(#clip632)" style="stroke:#000000; stroke-width:2; stroke-opacity:0.1; fill:none" points="
  148.334,344.107 2352.76,344.107 
  "/>
<polyline clip-path="url(#clip630)" style="stroke:#000000; stroke-width:4; stroke-opacity:1; fill:none" points="
  148.334,1486.45 148.334,123.472 
  "/>
<polyline clip-path="url(#clip630)" style="stroke:#000000; stroke-width:4; stroke-opacity:1; fill:none" points="
  148.334,1238.37 174.787,1238.37 
  "/>
<polyline clip-path="url(#clip630)" style="stroke:#000000; stroke-width:4; stroke-opacity:1; fill:none" points="
  148.334,940.28 174.787,940.28 
  "/>
<polyline clip-path="url(#clip630)" style="stroke:#000000; stroke-width:4; stroke-opacity:1; fill:none" points="
  148.334,642.194 174.787,642.194 
  "/>
<polyline clip-path="url(#clip630)" style="stroke:#000000; stroke-width:4; stroke-opacity:1; fill:none" points="
  148.334,344.107 174.787,344.107 
  "/>
<path clip-path="url(#clip630)" d="M 0 0 M65.0198 1224.17 Q61.4087 1224.17 59.58 1227.73 Q57.7745 1231.27 57.7745 1238.4 Q57.7745 1245.51 59.58 1249.07 Q61.4087 1252.61 65.0198 1252.61 Q68.6541 1252.61 70.4596 1249.07 Q72.2883 1245.51 72.2883 1238.4 Q72.2883 1231.27 70.4596 1227.73 Q68.6541 1224.17 65.0198 1224.17 M65.0198 1220.46 Q70.83 1220.46 73.8855 1225.07 Q76.9642 1229.65 76.9642 1238.4 Q76.9642 1247.13 73.8855 1251.73 Q70.83 1256.32 65.0198 1256.32 Q59.2097 1256.32 56.131 1251.73 Q53.0754 1247.13 53.0754 1238.4 Q53.0754 1229.65 56.131 1225.07 Q59.2097 1220.46 65.0198 1220.46 Z" fill="#000000" fill-rule="evenodd" fill-opacity="1" /><path clip-path="url(#clip630)" d="M 0 0 M82.0336 1249.77 L86.9179 1249.77 L86.9179 1255.65 L82.0336 1255.65 L82.0336 1249.77 Z" fill="#000000" fill-rule="evenodd" fill-opacity="1" /><path clip-path="url(#clip630)" d="M 0 0 M96.015 1251.71 L112.334 1251.71 L112.334 1255.65 L90.3901 1255.65 L90.3901 1251.71 Q93.0521 1248.96 97.6354 1244.33 Q102.242 1239.67 103.422 1238.33 Q105.668 1235.81 106.547 1234.07 Q107.45 1232.31 107.45 1230.62 Q107.45 1227.87 105.506 1226.13 Q103.584 1224.4 100.483 1224.4 Q98.2835 1224.4 95.8298 1225.16 Q93.3993 1225.92 90.6215 1227.48 L90.6215 1222.75 Q93.4456 1221.62 95.8993 1221.04 Q98.353 1220.46 100.39 1220.46 Q105.76 1220.46 108.955 1223.15 Q112.149 1225.83 112.149 1230.32 Q112.149 1232.45 111.339 1234.37 Q110.552 1236.27 108.446 1238.86 Q107.867 1239.54 104.765 1242.75 Q101.663 1245.95 96.015 1251.71 Z" fill="#000000" fill-rule="evenodd" fill-opacity="1" /><path clip-path="url(#clip630)" d="M 0 0 M62.9365 926.079 Q59.3254 926.079 57.4967 929.644 Q55.6912 933.185 55.6912 940.315 Q55.6912 947.421 57.4967 950.986 Q59.3254 954.528 62.9365 954.528 Q66.5707 954.528 68.3763 950.986 Q70.205 947.421 70.205 940.315 Q70.205 933.185 68.3763 929.644 Q66.5707 926.079 62.9365 926.079 M62.9365 922.375 Q68.7467 922.375 71.8022 926.982 Q74.8809 931.565 74.8809 940.315 Q74.8809 949.042 71.8022 953.648 Q68.7467 958.231 62.9365 958.231 Q57.1264 958.231 54.0477 953.648 Q50.9921 949.042 50.9921 940.315 Q50.9921 931.565 54.0477 926.982 Q57.1264 922.375 62.9365 922.375 Z" fill="#000000" fill-rule="evenodd" fill-opacity="1" /><path clip-path="url(#clip630)" d="M 0 0 M79.9503 951.681 L84.8345 951.681 L84.8345 957.56 L79.9503 957.56 L79.9503 951.681 Z" fill="#000000" fill-rule="evenodd" fill-opacity="1" /><path clip-path="url(#clip630)" d="M 0 0 M102.751 927.074 L90.9456 945.523 L102.751 945.523 L102.751 927.074 M101.524 923 L107.404 923 L107.404 945.523 L112.334 945.523 L112.334 949.412 L107.404 949.412 L107.404 957.56 L102.751 957.56 L102.751 949.412 L87.1493 949.412 L87.1493 944.898 L101.524 923 Z" fill="#000000" fill-rule="evenodd" fill-opacity="1" /><path clip-path="url(#clip630)" d="M 0 0 M63.2606 627.992 Q59.6495 627.992 57.8208 631.557 Q56.0152 635.099 56.0152 642.228 Q56.0152 649.335 57.8208 652.899 Q59.6495 656.441 63.2606 656.441 Q66.8948 656.441 68.7004 652.899 Q70.5291 649.335 70.5291 642.228 Q70.5291 635.099 68.7004 631.557 Q66.8948 627.992 63.2606 627.992 M63.2606 624.289 Q69.0707 624.289 72.1263 628.895 Q75.205 633.478 75.205 642.228 Q75.205 650.955 72.1263 655.562 Q69.0707 660.145 63.2606 660.145 Q57.4504 660.145 54.3717 655.562 Q51.3162 650.955 51.3162 642.228 Q51.3162 633.478 54.3717 628.895 Q57.4504 624.289 63.2606 624.289 Z" fill="#000000" fill-rule="evenodd" fill-opacity="1" /><path clip-path="url(#clip630)" d="M 0 0 M80.2744 653.594 L85.1586 653.594 L85.1586 659.474 L80.2744 659.474 L80.2744 653.594 Z" fill="#000000" fill-rule="evenodd" fill-opacity="1" /><path clip-path="url(#clip630)" d="M 0 0 M100.807 640.33 Q97.6585 640.33 95.8067 642.483 Q93.978 644.636 93.978 648.386 Q93.978 652.112 95.8067 654.288 Q97.6585 656.441 100.807 656.441 Q103.955 656.441 105.783 654.288 Q107.635 652.112 107.635 648.386 Q107.635 644.636 105.783 642.483 Q103.955 640.33 100.807 640.33 M110.089 625.677 L110.089 629.937 Q108.33 629.103 106.524 628.664 Q104.742 628.224 102.983 628.224 Q98.353 628.224 95.8993 631.349 Q93.4688 634.474 93.1215 640.793 Q94.4873 638.779 96.5474 637.714 Q98.6076 636.626 101.084 636.626 Q106.293 636.626 109.302 639.798 Q112.334 642.946 112.334 648.386 Q112.334 653.71 109.186 656.927 Q106.038 660.145 100.807 660.145 Q94.8113 660.145 91.6401 655.562 Q88.4688 650.955 88.4688 642.228 Q88.4688 634.034 92.3576 629.173 Q96.2465 624.289 102.797 624.289 Q104.557 624.289 106.339 624.636 Q108.145 624.983 110.089 625.677 Z" fill="#000000" fill-rule="evenodd" fill-opacity="1" /><path clip-path="url(#clip630)" d="M 0 0 M63.5152 329.906 Q59.9041 329.906 58.0754 333.47 Q56.2699 337.012 56.2699 344.142 Q56.2699 351.248 58.0754 354.813 Q59.9041 358.354 63.5152 358.354 Q67.1494 358.354 68.955 354.813 Q70.7837 351.248 70.7837 344.142 Q70.7837 337.012 68.955 333.47 Q67.1494 329.906 63.5152 329.906 M63.5152 326.202 Q69.3254 326.202 72.3809 330.808 Q75.4596 335.392 75.4596 344.142 Q75.4596 352.868 72.3809 357.475 Q69.3254 362.058 63.5152 362.058 Q57.7051 362.058 54.6264 357.475 Q51.5708 352.868 51.5708 344.142 Q51.5708 335.392 54.6264 330.808 Q57.7051 326.202 63.5152 326.202 Z" fill="#000000" fill-rule="evenodd" fill-opacity="1" /><path clip-path="url(#clip630)" d="M 0 0 M80.529 355.507 L85.4132 355.507 L85.4132 361.387 L80.529 361.387 L80.529 355.507 Z" fill="#000000" fill-rule="evenodd" fill-opacity="1" /><path clip-path="url(#clip630)" d="M 0 0 M100.483 344.975 Q97.1493 344.975 95.228 346.757 Q93.3299 348.54 93.3299 351.665 Q93.3299 354.79 95.228 356.572 Q97.1493 358.354 100.483 358.354 Q103.816 358.354 105.737 356.572 Q107.658 354.767 107.658 351.665 Q107.658 348.54 105.737 346.757 Q103.839 344.975 100.483 344.975 M95.8067 342.984 Q92.7975 342.243 91.1077 340.183 Q89.441 338.123 89.441 335.16 Q89.441 331.017 92.3808 328.609 Q95.3437 326.202 100.483 326.202 Q105.645 326.202 108.584 328.609 Q111.524 331.017 111.524 335.16 Q111.524 338.123 109.834 340.183 Q108.168 342.243 105.182 342.984 Q108.561 343.771 110.436 346.063 Q112.334 348.355 112.334 351.665 Q112.334 356.688 109.256 359.373 Q106.2 362.058 100.483 362.058 Q94.765 362.058 91.6864 359.373 Q88.6308 356.688 88.6308 351.665 Q88.6308 348.355 90.529 346.063 Q92.4271 343.771 95.8067 342.984 M94.0937 335.6 Q94.0937 338.285 95.7604 339.79 Q97.4502 341.294 100.483 341.294 Q103.492 341.294 105.182 339.79 Q106.895 338.285 106.895 335.6 Q106.895 332.915 105.182 331.41 Q103.492 329.906 100.483 329.906 Q97.4502 329.906 95.7604 331.41 Q94.0937 332.915 94.0937 335.6 Z" fill="#000000" fill-rule="evenodd" fill-opacity="1" /><path clip-path="url(#clip630)" d="M 0 0 M949.583 63.9476 L949.583 47.7034 L936.215 47.7034 L936.215 40.9789 L957.685 40.9789 L957.685 66.9452 Q952.945 70.3075 947.234 72.0494 Q941.522 73.7508 935.04 73.7508 Q920.862 73.7508 912.842 65.4869 Q904.861 57.1826 904.861 42.3968 Q904.861 27.5705 912.842 19.3066 Q920.862 11.0023 935.04 11.0023 Q940.955 11.0023 946.261 12.4606 Q951.609 13.9189 956.105 16.7545 L956.105 25.464 Q951.568 21.6156 946.464 19.6712 Q941.36 17.7268 935.729 17.7268 Q924.63 17.7268 919.039 23.9246 Q913.49 30.1225 913.49 42.3968 Q913.49 54.6305 919.039 60.8284 Q924.63 67.0263 935.729 67.0263 Q940.064 67.0263 943.466 66.2971 Q946.869 65.5274 949.583 63.9476 Z" fill="#000000" fill-rule="evenodd" fill-opacity="1" /><path clip-path="url(#clip630)" d="M 0 0 M991.794 34.1734 Q990.538 33.4443 989.039 33.1202 Q987.581 32.7556 985.798 32.7556 Q979.479 32.7556 976.076 36.8875 Q972.714 40.9789 972.714 48.6757 L972.714 72.576 L965.22 72.576 L965.22 27.2059 L972.714 27.2059 L972.714 34.2544 Q975.063 30.1225 978.831 28.1376 Q982.598 26.1121 987.986 26.1121 Q988.755 26.1121 989.687 26.2337 Q990.619 26.3147 991.753 26.5172 L991.794 34.1734 Z" fill="#000000" fill-rule="evenodd" fill-opacity="1" /><path clip-path="url(#clip630)" d="M 0 0 M1020.23 49.7694 Q1011.2 49.7694 1007.71 51.8354 Q1004.23 53.9013 1004.23 58.8839 Q1004.23 62.8538 1006.82 65.2034 Q1009.46 67.5124 1013.95 67.5124 Q1020.15 67.5124 1023.88 63.1374 Q1027.64 58.7219 1027.64 51.4303 L1027.64 49.7694 L1020.23 49.7694 M1035.1 46.6907 L1035.1 72.576 L1027.64 72.576 L1027.64 65.6895 Q1025.09 69.8214 1021.28 71.8063 Q1017.48 73.7508 1011.97 73.7508 Q1005 73.7508 1000.87 69.8619 Q996.776 65.9325 996.776 59.3701 Q996.776 51.7138 1001.88 47.825 Q1007.03 43.9361 1017.19 43.9361 L1027.64 43.9361 L1027.64 43.2069 Q1027.64 38.0623 1024.24 35.2672 Q1020.88 32.4315 1014.76 32.4315 Q1010.87 32.4315 1007.19 33.3632 Q1003.5 34.295 1000.1 36.1584 L1000.1 29.2718 Q1004.19 27.692 1008.04 26.9223 Q1011.89 26.1121 1015.53 26.1121 Q1025.38 26.1121 1030.24 31.2163 Q1035.1 36.3204 1035.1 46.6907 M1021.49 6.22219 L1029.55 6.22219 L1016.34 21.4536 L1010.14 21.4536 L1021.49 6.22219 Z" fill="#000000" fill-rule="evenodd" fill-opacity="1" /><path clip-path="url(#clip630)" d="M 0 0 M1065.88 9.54393 L1065.88 15.7418 L1058.76 15.7418 Q1054.74 15.7418 1053.16 17.3622 Q1051.63 18.9825 1051.63 23.1955 L1051.63 27.2059 L1063.9 27.2059 L1063.9 32.9987 L1051.63 32.9987 L1051.63 72.576 L1044.13 72.576 L1044.13 32.9987 L1037 32.9987 L1037 27.2059 L1044.13 27.2059 L1044.13 24.0462 Q1044.13 16.471 1047.66 13.0277 Q1051.18 9.54393 1058.84 9.54393 L1065.88 9.54393 Z" fill="#000000" fill-rule="evenodd" fill-opacity="1" /><path clip-path="url(#clip630)" d="M 0 0 M1073.7 27.2059 L1081.16 27.2059 L1081.16 72.576 L1073.7 72.576 L1073.7 27.2059 M1073.7 9.54393 L1081.16 9.54393 L1081.16 18.9825 L1073.7 18.9825 L1073.7 9.54393 Z" fill="#000000" fill-rule="evenodd" fill-opacity="1" /><path clip-path="url(#clip630)" d="M 0 0 M1121.63 28.9478 L1121.63 35.9153 Q1118.47 34.1734 1115.27 33.3227 Q1112.11 32.4315 1108.86 32.4315 Q1101.61 32.4315 1097.6 37.0496 Q1093.59 41.6271 1093.59 49.9314 Q1093.59 58.2358 1097.6 62.8538 Q1101.61 67.4314 1108.86 67.4314 Q1112.11 67.4314 1115.27 66.5807 Q1118.47 65.6895 1121.63 63.9476 L1121.63 70.8341 Q1118.51 72.2924 1115.14 73.0216 Q1111.82 73.7508 1108.05 73.7508 Q1097.81 73.7508 1091.77 67.3098 Q1085.73 60.8689 1085.73 49.9314 Q1085.73 38.832 1091.81 32.472 Q1097.93 26.1121 1108.54 26.1121 Q1111.98 26.1121 1115.27 26.8413 Q1118.55 27.5299 1121.63 28.9478 Z" fill="#000000" fill-rule="evenodd" fill-opacity="1" /><path clip-path="url(#clip630)" d="M 0 0 M1150.06 49.7694 Q1141.03 49.7694 1137.55 51.8354 Q1134.06 53.9013 1134.06 58.8839 Q1134.06 62.8538 1136.65 65.2034 Q1139.29 67.5124 1143.78 67.5124 Q1149.98 67.5124 1153.71 63.1374 Q1157.48 58.7219 1157.48 51.4303 L1157.48 49.7694 L1150.06 49.7694 M1164.93 46.6907 L1164.93 72.576 L1157.48 72.576 L1157.48 65.6895 Q1154.92 69.8214 1151.12 71.8063 Q1147.31 73.7508 1141.8 73.7508 Q1134.83 73.7508 1130.7 69.8619 Q1126.61 65.9325 1126.61 59.3701 Q1126.61 51.7138 1131.71 47.825 Q1136.86 43.9361 1147.02 43.9361 L1157.48 43.9361 L1157.48 43.2069 Q1157.48 38.0623 1154.07 35.2672 Q1150.71 32.4315 1144.59 32.4315 Q1140.7 32.4315 1137.02 33.3632 Q1133.33 34.295 1129.93 36.1584 L1129.93 29.2718 Q1134.02 27.692 1137.87 26.9223 Q1141.72 26.1121 1145.36 26.1121 Q1155.21 26.1121 1160.07 31.2163 Q1164.93 36.3204 1164.93 46.6907 Z" fill="#000000" fill-rule="evenodd" fill-opacity="1" /><path clip-path="url(#clip630)" d="M 0 0 M1219.74 49.7694 Q1210.7 49.7694 1207.22 51.8354 Q1203.74 53.9013 1203.74 58.8839 Q1203.74 62.8538 1206.33 65.2034 Q1208.96 67.5124 1213.46 67.5124 Q1219.66 67.5124 1223.38 63.1374 Q1227.15 58.7219 1227.15 51.4303 L1227.15 49.7694 L1219.74 49.7694 M1234.6 46.6907 L1234.6 72.576 L1227.15 72.576 L1227.15 65.6895 Q1224.6 69.8214 1220.79 71.8063 Q1216.98 73.7508 1211.47 73.7508 Q1204.51 73.7508 1200.37 69.8619 Q1196.28 65.9325 1196.28 59.3701 Q1196.28 51.7138 1201.39 47.825 Q1206.53 43.9361 1216.7 43.9361 L1227.15 43.9361 L1227.15 43.2069 Q1227.15 38.0623 1223.75 35.2672 Q1220.39 32.4315 1214.27 32.4315 Q1210.38 32.4315 1206.69 33.3632 Q1203.01 34.295 1199.61 36.1584 L1199.61 29.2718 Q1203.7 27.692 1207.54 26.9223 Q1211.39 26.1121 1215.04 26.1121 Q1224.88 26.1121 1229.74 31.2163 Q1234.6 36.3204 1234.6 46.6907 Z" fill="#000000" fill-rule="evenodd" fill-opacity="1" /><path clip-path="url(#clip630)" d="M 0 0 M1275.07 28.9478 L1275.07 35.9153 Q1271.91 34.1734 1268.71 33.3227 Q1265.55 32.4315 1262.31 32.4315 Q1255.06 32.4315 1251.05 37.0496 Q1247.04 41.6271 1247.04 49.9314 Q1247.04 58.2358 1251.05 62.8538 Q1255.06 67.4314 1262.31 67.4314 Q1265.55 67.4314 1268.71 66.5807 Q1271.91 65.6895 1275.07 63.9476 L1275.07 70.8341 Q1271.95 72.2924 1268.59 73.0216 Q1265.27 73.7508 1261.5 73.7508 Q1251.25 73.7508 1245.22 67.3098 Q1239.18 60.8689 1239.18 49.9314 Q1239.18 38.832 1245.26 32.472 Q1251.38 26.1121 1261.99 26.1121 Q1265.43 26.1121 1268.71 26.8413 Q1271.99 27.5299 1275.07 28.9478 Z" fill="#000000" fill-rule="evenodd" fill-opacity="1" /><path clip-path="url(#clip630)" d="M 0 0 M1290.26 14.324 L1290.26 27.2059 L1305.62 27.2059 L1305.62 32.9987 L1290.26 32.9987 L1290.26 57.6282 Q1290.26 63.1779 1291.76 64.7578 Q1293.3 66.3376 1297.96 66.3376 L1305.62 66.3376 L1305.62 72.576 L1297.96 72.576 Q1289.33 72.576 1286.05 69.3758 Q1282.77 66.1351 1282.77 57.6282 L1282.77 32.9987 L1277.3 32.9987 L1277.3 27.2059 L1282.77 27.2059 L1282.77 14.324 L1290.26 14.324 Z" fill="#000000" fill-rule="evenodd" fill-opacity="1" /><path clip-path="url(#clip630)" d="M 0 0 M1312.67 54.671 L1312.67 27.2059 L1320.12 27.2059 L1320.12 54.3874 Q1320.12 60.8284 1322.63 64.0691 Q1325.14 67.2693 1330.17 67.2693 Q1336.2 67.2693 1339.69 63.421 Q1343.21 59.5726 1343.21 52.9291 L1343.21 27.2059 L1350.66 27.2059 L1350.66 72.576 L1343.21 72.576 L1343.21 65.6084 Q1340.5 69.7404 1336.89 71.7658 Q1333.33 73.7508 1328.59 73.7508 Q1320.77 73.7508 1316.72 68.8897 Q1312.67 64.0286 1312.67 54.671 M1331.42 26.1121 L1331.42 26.1121 Z" fill="#000000" fill-rule="evenodd" fill-opacity="1" /><path clip-path="url(#clip630)" d="M 0 0 M1379.1 49.7694 Q1370.07 49.7694 1366.58 51.8354 Q1363.1 53.9013 1363.1 58.8839 Q1363.1 62.8538 1365.69 65.2034 Q1368.33 67.5124 1372.82 67.5124 Q1379.02 67.5124 1382.75 63.1374 Q1386.51 58.7219 1386.51 51.4303 L1386.51 49.7694 L1379.1 49.7694 M1393.97 46.6907 L1393.97 72.576 L1386.51 72.576 L1386.51 65.6895 Q1383.96 69.8214 1380.15 71.8063 Q1376.35 73.7508 1370.84 73.7508 Q1363.87 73.7508 1359.74 69.8619 Q1355.65 65.9325 1355.65 59.3701 Q1355.65 51.7138 1360.75 47.825 Q1365.89 43.9361 1376.06 43.9361 L1386.51 43.9361 L1386.51 43.2069 Q1386.51 38.0623 1383.11 35.2672 Q1379.75 32.4315 1373.63 32.4315 Q1369.74 32.4315 1366.06 33.3632 Q1362.37 34.295 1358.97 36.1584 L1358.97 29.2718 Q1363.06 27.692 1366.91 26.9223 Q1370.76 26.1121 1374.4 26.1121 Q1384.25 26.1121 1389.11 31.2163 Q1393.97 36.3204 1393.97 46.6907 Z" fill="#000000" fill-rule="evenodd" fill-opacity="1" /><path clip-path="url(#clip630)" d="M 0 0 M1401.79 9.54393 L1409.24 9.54393 L1409.24 72.576 L1401.79 72.576 L1401.79 9.54393 Z" fill="#000000" fill-rule="evenodd" fill-opacity="1" /><path clip-path="url(#clip630)" d="M 0 0 M1417.06 27.2059 L1424.51 27.2059 L1424.51 72.576 L1417.06 72.576 L1417.06 27.2059 M1417.06 9.54393 L1424.51 9.54393 L1424.51 18.9825 L1417.06 18.9825 L1417.06 9.54393 Z" fill="#000000" fill-rule="evenodd" fill-opacity="1" /><path clip-path="url(#clip630)" d="M 0 0 M1429.09 27.2059 L1464.49 27.2059 L1464.49 34.0114 L1436.46 66.6212 L1464.49 66.6212 L1464.49 72.576 L1428.08 72.576 L1428.08 65.7705 L1456.11 33.1607 L1429.09 33.1607 L1429.09 27.2059 Z" fill="#000000" fill-rule="evenodd" fill-opacity="1" /><path clip-path="url(#clip630)" d="M 0 0 M1492.93 49.7694 Q1483.9 49.7694 1480.41 51.8354 Q1476.93 53.9013 1476.93 58.8839 Q1476.93 62.8538 1479.52 65.2034 Q1482.16 67.5124 1486.65 67.5124 Q1492.85 67.5124 1496.58 63.1374 Q1500.34 58.7219 1500.34 51.4303 L1500.34 49.7694 L1492.93 49.7694 M1507.8 46.6907 L1507.8 72.576 L1500.34 72.576 L1500.34 65.6895 Q1497.79 69.8214 1493.98 71.8063 Q1490.18 73.7508 1484.67 73.7508 Q1477.7 73.7508 1473.57 69.8619 Q1469.48 65.9325 1469.48 59.3701 Q1469.48 51.7138 1474.58 47.825 Q1479.73 43.9361 1489.89 43.9361 L1500.34 43.9361 L1500.34 43.2069 Q1500.34 38.0623 1496.94 35.2672 Q1493.58 32.4315 1487.46 32.4315 Q1483.57 32.4315 1479.89 33.3632 Q1476.2 34.295 1472.8 36.1584 L1472.8 29.2718 Q1476.89 27.692 1480.74 26.9223 Q1484.59 26.1121 1488.23 26.1121 Q1498.08 26.1121 1502.94 31.2163 Q1507.8 36.3204 1507.8 46.6907 Z" fill="#000000" fill-rule="evenodd" fill-opacity="1" /><path clip-path="url(#clip630)" d="M 0 0 M1545.47 34.0924 L1545.47 9.54393 L1552.92 9.54393 L1552.92 72.576 L1545.47 72.576 L1545.47 65.7705 Q1543.12 69.8214 1539.52 71.8063 Q1535.95 73.7508 1530.93 73.7508 Q1522.71 73.7508 1517.52 67.1883 Q1512.38 60.6258 1512.38 49.9314 Q1512.38 39.2371 1517.52 32.6746 Q1522.71 26.1121 1530.93 26.1121 Q1535.95 26.1121 1539.52 28.0971 Q1543.12 30.0415 1545.47 34.0924 M1520.07 49.9314 Q1520.07 58.1548 1523.43 62.8538 Q1526.84 67.5124 1532.75 67.5124 Q1538.67 67.5124 1542.07 62.8538 Q1545.47 58.1548 1545.47 49.9314 Q1545.47 41.7081 1542.07 37.0496 Q1538.67 32.3505 1532.75 32.3505 Q1526.84 32.3505 1523.43 37.0496 Q1520.07 41.7081 1520.07 49.9314 Z" fill="#000000" fill-rule="evenodd" fill-opacity="1" /><path clip-path="url(#clip630)" d="M 0 0 M1581.36 49.7694 Q1572.33 49.7694 1568.84 51.8354 Q1565.36 53.9013 1565.36 58.8839 Q1565.36 62.8538 1567.95 65.2034 Q1570.59 67.5124 1575.08 67.5124 Q1581.28 67.5124 1585.01 63.1374 Q1588.78 58.7219 1588.78 51.4303 L1588.78 49.7694 L1581.36 49.7694 M1596.23 46.6907 L1596.23 72.576 L1588.78 72.576 L1588.78 65.6895 Q1586.22 69.8214 1582.42 71.8063 Q1578.61 73.7508 1573.1 73.7508 Q1566.13 73.7508 1562 69.8619 Q1557.91 65.9325 1557.91 59.3701 Q1557.91 51.7138 1563.01 47.825 Q1568.16 43.9361 1578.32 43.9361 L1588.78 43.9361 L1588.78 43.2069 Q1588.78 38.0623 1585.37 35.2672 Q1582.01 32.4315 1575.89 32.4315 Q1572 32.4315 1568.32 33.3632 Q1564.63 34.295 1561.23 36.1584 L1561.23 29.2718 Q1565.32 27.692 1569.17 26.9223 Q1573.02 26.1121 1576.66 26.1121 Q1586.51 26.1121 1591.37 31.2163 Q1596.23 36.3204 1596.23 46.6907 Z" fill="#000000" fill-rule="evenodd" fill-opacity="1" /><polyline clip-path="url(#clip632)" style="stroke:#008000; stroke-width:12; stroke-opacity:0.8; fill:none" points="
  210.724,367.669 441.795,201.299 672.867,280.814 903.938,737.551 1135.01,1195.37 1366.08,1181.09 1597.15,565.826 1828.22,608.404 2059.3,512.935 2290.37,942.643 
  
  "/>
<polyline clip-path="url(#clip632)" style="stroke:#800080; stroke-width:12; stroke-opacity:0.9; fill:none" points="
  210.724,861.084 441.795,1321.24 672.867,1100.78 903.938,619.279 1135.01,1034.4 1366.08,1391.9 1597.15,262.854 1828.22,1447.87 2059.3,162.047 2290.37,347.329 
  
  "/>
<path clip-path="url(#clip630)" d="
M1885.84 350.345 L2279.28 350.345 L2279.28 168.905 L1885.84 168.905  Z
  " fill="#ffffff" fill-rule="evenodd" fill-opacity="1"/>
<polyline clip-path="url(#clip630)" style="stroke:#000000; stroke-width:4; stroke-opacity:1; fill:none" points="
  1885.84,350.345 2279.28,350.345 2279.28,168.905 1885.84,168.905 1885.84,350.345 
  "/>
<polyline clip-path="url(#clip630)" style="stroke:#008000; stroke-width:4; stroke-opacity:0.8; fill:none" points="
  1910.34,229.385 2057.3,229.385 
  "/>
<path clip-path="url(#clip630)" d="M 0 0 M2081.79 212.105 L2086.47 212.105 L2086.47 242.729 L2103.3 242.729 L2103.3 246.665 L2081.79 246.665 L2081.79 212.105 Z" fill="#000000" fill-rule="evenodd" fill-opacity="1" /><path clip-path="url(#clip630)" d="M 0 0 M2107.77 220.739 L2112.02 220.739 L2112.02 246.665 L2107.77 246.665 L2107.77 220.739 M2107.77 210.646 L2112.02 210.646 L2112.02 216.04 L2107.77 216.04 L2107.77 210.646 Z" fill="#000000" fill-rule="evenodd" fill-opacity="1" /><path clip-path="url(#clip630)" d="M 0 0 M2138.04 231.017 L2138.04 246.665 L2133.78 246.665 L2133.78 231.155 Q2133.78 227.475 2132.35 225.646 Q2130.91 223.818 2128.04 223.818 Q2124.59 223.818 2122.6 226.017 Q2120.61 228.216 2120.61 232.012 L2120.61 246.665 L2116.33 246.665 L2116.33 220.739 L2120.61 220.739 L2120.61 224.767 Q2122.14 222.429 2124.2 221.271 Q2126.28 220.114 2128.99 220.114 Q2133.46 220.114 2135.75 222.892 Q2138.04 225.646 2138.04 231.017 Z" fill="#000000" fill-rule="evenodd" fill-opacity="1" /><path clip-path="url(#clip630)" d="M 0 0 M2164.69 232.637 L2164.69 234.72 L2145.1 234.72 Q2145.38 239.118 2147.74 241.433 Q2150.13 243.725 2154.36 243.725 Q2156.82 243.725 2159.11 243.123 Q2161.42 242.521 2163.69 241.317 L2163.69 245.345 Q2161.4 246.317 2158.99 246.827 Q2156.58 247.336 2154.11 247.336 Q2147.9 247.336 2144.27 243.725 Q2140.66 240.114 2140.66 233.956 Q2140.66 227.591 2144.08 223.864 Q2147.53 220.114 2153.37 220.114 Q2158.6 220.114 2161.63 223.493 Q2164.69 226.85 2164.69 232.637 M2160.43 231.387 Q2160.38 227.892 2158.46 225.808 Q2156.56 223.725 2153.41 223.725 Q2149.85 223.725 2147.7 225.739 Q2145.57 227.753 2145.24 231.41 L2160.43 231.387 Z" fill="#000000" fill-rule="evenodd" fill-opacity="1" /><path clip-path="url(#clip630)" d="M 0 0 M2180.94 233.632 Q2175.77 233.632 2173.78 234.813 Q2171.79 235.993 2171.79 238.841 Q2171.79 241.109 2173.27 242.452 Q2174.78 243.771 2177.35 243.771 Q2180.89 243.771 2183.02 241.271 Q2185.17 238.748 2185.17 234.581 L2185.17 233.632 L2180.94 233.632 M2189.43 231.873 L2189.43 246.665 L2185.17 246.665 L2185.17 242.729 Q2183.71 245.091 2181.54 246.225 Q2179.36 247.336 2176.21 247.336 Q2172.23 247.336 2169.87 245.114 Q2167.53 242.868 2167.53 239.118 Q2167.53 234.743 2170.45 232.521 Q2173.39 230.299 2179.2 230.299 L2185.17 230.299 L2185.17 229.882 Q2185.17 226.943 2183.23 225.345 Q2181.31 223.725 2177.81 223.725 Q2175.59 223.725 2173.48 224.257 Q2171.38 224.79 2169.43 225.855 L2169.43 221.919 Q2171.77 221.017 2173.97 220.577 Q2176.17 220.114 2178.25 220.114 Q2183.88 220.114 2186.65 223.031 Q2189.43 225.947 2189.43 231.873 Z" fill="#000000" fill-rule="evenodd" fill-opacity="1" /><path clip-path="url(#clip630)" d="M 0 0 M2210.38 242.729 L2218.02 242.729 L2218.02 216.364 L2209.71 218.031 L2209.71 213.771 L2217.97 212.105 L2222.65 212.105 L2222.65 242.729 L2230.29 242.729 L2230.29 246.665 L2210.38 246.665 L2210.38 242.729 Z" fill="#000000" fill-rule="evenodd" fill-opacity="1" /><polyline clip-path="url(#clip630)" style="stroke:#800080; stroke-width:4; stroke-opacity:0.9; fill:none" points="
  1910.34,289.865 2057.3,289.865 
  "/>
<path clip-path="url(#clip630)" d="M 0 0 M2081.79 272.585 L2086.47 272.585 L2086.47 303.209 L2103.3 303.209 L2103.3 307.145 L2081.79 307.145 L2081.79 272.585 Z" fill="#000000" fill-rule="evenodd" fill-opacity="1" /><path clip-path="url(#clip630)" d="M 0 0 M2107.77 281.219 L2112.02 281.219 L2112.02 307.145 L2107.77 307.145 L2107.77 281.219 M2107.77 271.126 L2112.02 271.126 L2112.02 276.52 L2107.77 276.52 L2107.77 271.126 Z" fill="#000000" fill-rule="evenodd" fill-opacity="1" /><path clip-path="url(#clip630)" d="M 0 0 M2138.04 291.497 L2138.04 307.145 L2133.78 307.145 L2133.78 291.635 Q2133.78 287.955 2132.35 286.126 Q2130.91 284.298 2128.04 284.298 Q2124.59 284.298 2122.6 286.497 Q2120.61 288.696 2120.61 292.492 L2120.61 307.145 L2116.33 307.145 L2116.33 281.219 L2120.61 281.219 L2120.61 285.247 Q2122.14 282.909 2124.2 281.751 Q2126.28 280.594 2128.99 280.594 Q2133.46 280.594 2135.75 283.372 Q2138.04 286.126 2138.04 291.497 Z" fill="#000000" fill-rule="evenodd" fill-opacity="1" /><path clip-path="url(#clip630)" d="M 0 0 M2164.69 293.117 L2164.69 295.2 L2145.1 295.2 Q2145.38 299.598 2147.74 301.913 Q2150.13 304.205 2154.36 304.205 Q2156.82 304.205 2159.11 303.603 Q2161.42 303.001 2163.69 301.797 L2163.69 305.825 Q2161.4 306.797 2158.99 307.307 Q2156.58 307.816 2154.11 307.816 Q2147.9 307.816 2144.27 304.205 Q2140.66 300.594 2140.66 294.436 Q2140.66 288.071 2144.08 284.344 Q2147.53 280.594 2153.37 280.594 Q2158.6 280.594 2161.63 283.973 Q2164.69 287.33 2164.69 293.117 M2160.43 291.867 Q2160.38 288.372 2158.46 286.288 Q2156.56 284.205 2153.41 284.205 Q2149.85 284.205 2147.7 286.219 Q2145.57 288.233 2145.24 291.89 L2160.43 291.867 Z" fill="#000000" fill-rule="evenodd" fill-opacity="1" /><path clip-path="url(#clip630)" d="M 0 0 M2180.94 294.112 Q2175.77 294.112 2173.78 295.293 Q2171.79 296.473 2171.79 299.321 Q2171.79 301.589 2173.27 302.932 Q2174.78 304.251 2177.35 304.251 Q2180.89 304.251 2183.02 301.751 Q2185.17 299.228 2185.17 295.061 L2185.17 294.112 L2180.94 294.112 M2189.43 292.353 L2189.43 307.145 L2185.17 307.145 L2185.17 303.209 Q2183.71 305.571 2181.54 306.705 Q2179.36 307.816 2176.21 307.816 Q2172.23 307.816 2169.87 305.594 Q2167.53 303.348 2167.53 299.598 Q2167.53 295.223 2170.45 293.001 Q2173.39 290.779 2179.2 290.779 L2185.17 290.779 L2185.17 290.362 Q2185.17 287.423 2183.23 285.825 Q2181.31 284.205 2177.81 284.205 Q2175.59 284.205 2173.48 284.737 Q2171.38 285.27 2169.43 286.335 L2169.43 282.399 Q2171.77 281.497 2173.97 281.057 Q2176.17 280.594 2178.25 280.594 Q2183.88 280.594 2186.65 283.511 Q2189.43 286.427 2189.43 292.353 Z" fill="#000000" fill-rule="evenodd" fill-opacity="1" /><path clip-path="url(#clip630)" d="M 0 0 M2213.6 303.209 L2229.92 303.209 L2229.92 307.145 L2207.97 307.145 L2207.97 303.209 Q2210.64 300.455 2215.22 295.825 Q2219.83 291.173 2221.01 289.83 Q2223.25 287.307 2224.13 285.571 Q2225.03 283.811 2225.03 282.122 Q2225.03 279.367 2223.09 277.631 Q2221.17 275.895 2218.07 275.895 Q2215.87 275.895 2213.41 276.659 Q2210.98 277.423 2208.2 278.974 L2208.2 274.251 Q2211.03 273.117 2213.48 272.538 Q2215.94 271.96 2217.97 271.96 Q2223.34 271.96 2226.54 274.645 Q2229.73 277.33 2229.73 281.821 Q2229.73 283.95 2228.92 285.872 Q2228.14 287.77 2226.03 290.362 Q2225.45 291.034 2222.35 294.251 Q2219.25 297.446 2213.6 303.209 Z" fill="#000000" fill-rule="evenodd" fill-opacity="1" /></svg>
